<svg xmlns="http://www.w3.org/2000/svg" width="136" height="143" fill="none" viewBox="0 0 136 143"><rect width="136" height="143" fill="#000" rx="12"/><rect width="113" height="100" x="11" y="12" fill="#6B87FF" rx="5"/><path fill="#fff" d="M24 34.4286H30.8571V41.2857H24V34.4286ZM30.8571 34.4286H37.7143V41.2857H30.8571V34.4286ZM30.8571 41.2857H37.7143V48.1429H30.8571V41.2857ZM30.8571 48.1429H37.7143V55H30.8571V48.1429ZM30.8571 55H37.7143V61.8571H30.8571V55ZM24 55H30.8571V61.8571H24V55ZM24 48.1429H30.8571V55H24V48.1429ZM24 41.2857H30.8571V48.1429H24V41.2857ZM24 61.8571H30.8571V68.7143H24V61.8571ZM24 68.7143H30.8571V75.5714H24V68.7143ZM24 75.5714H30.8571V82.4286H24V75.5714ZM30.8571 68.7143H37.7143V75.5714H30.8571V68.7143ZM30.8571 61.8571H37.7143V68.7143H30.8571V61.8571ZM30.8571 75.5714H37.7143V82.4286H30.8571V75.5714ZM30.8571 82.4286H37.7143V89.2857H30.8571V82.4286ZM24 89.2857H30.8571V96.1429H24V89.2857ZM24 82.4286H30.8571V89.2857H24V82.4286ZM24 96.1429H30.8571V103H24V96.1429ZM30.8571 96.1429H37.7143V103H30.8571V96.1429ZM30.8571 89.2857H37.7143V96.1429H30.8571V89.2857ZM37.7143 96.1429H44.5714V103H37.7143V96.1429ZM44.5714 96.1429H51.4286V103H44.5714V96.1429ZM51.4286 96.1429H58.2857V103H51.4286V96.1429ZM51.4286 89.2857H58.2857V96.1429H51.4286V89.2857ZM44.5714 89.2857H51.4286V96.1429H44.5714V89.2857ZM37.7143 89.2857H44.5714V96.1429H37.7143V89.2857ZM78.8393 34.4286H85.6964V41.2857H78.8393V34.4286ZM71.9821 34.4286H78.8393V41.2857H71.9821V34.4286ZM71.9821 41.2857H78.8393V48.1429H71.9821V41.2857ZM78.8393 41.2857H85.6964V48.1429H78.8393V41.2857ZM85.6964 41.2857H92.5536V48.1429H85.6964V41.2857ZM85.6964 34.4286H92.5536V41.2857H85.6964V34.4286ZM92.5536 34.4286H99.4107V41.2857H92.5536V34.4286ZM99.4107 34.4286H106.268V41.2857H99.4107V34.4286ZM99.4107 41.2857H106.268V48.1429H99.4107V41.2857ZM92.5536 41.2857H99.4107V48.1429H92.5536V41.2857ZM99.4107 48.1429H106.268V55H99.4107V48.1429ZM106.268 41.2857H113.125V48.1429H106.268V41.2857ZM106.268 48.1429H113.125V55H106.268V48.1429ZM106.268 82.4286H113.125V89.2857H106.268V82.4286ZM106.268 89.2857H113.125V96.1429H106.268V89.2857ZM99.4107 89.2857H106.268V96.1429H99.4107V89.2857ZM99.4107 82.4286H106.268V89.2857H99.4107V82.4286ZM92.5536 89.2857H99.4107V96.1429H92.5536V89.2857ZM99.4107 96.1429H106.268V103H99.4107V96.1429ZM92.5536 96.1429H99.4107V103H92.5536V96.1429ZM85.6964 96.1429H92.5536V103H85.6964V96.1429ZM85.6964 89.2857H92.5536V96.1429H85.6964V89.2857ZM78.8393 96.1429H85.6964V103H78.8393V96.1429ZM71.9821 96.1429H78.8393V103H71.9821V96.1429ZM71.9821 89.2857H78.8393V96.1429H71.9821V89.2857ZM78.8393 89.2857H85.6964V96.1429H78.8393V89.2857ZM78.8393 82.4286H85.6964V89.2857H78.8393V82.4286ZM71.9821 82.4286H78.8393V89.2857H71.9821V82.4286ZM65.125 89.2857H71.9821V96.1429H65.125V89.2857ZM65.125 82.4286H71.9821V89.2857H65.125V82.4286ZM65.125 75.5714H71.9821V82.4286H65.125V75.5714ZM65.125 68.7143H71.9821V75.5714H65.125V68.7143ZM65.125 61.8571H71.9821V68.7143H65.125V61.8571ZM65.125 55H71.9821V61.8571H65.125V55ZM65.125 48.1429H71.9821V55H65.125V48.1429ZM71.9821 48.1429H78.8393V55H71.9821V48.1429ZM65.125 41.2857H71.9821V48.1429H65.125V41.2857ZM78.8393 48.1429H85.6964V55H78.8393V48.1429ZM71.9821 55H78.8393V61.8571H71.9821V55ZM71.9821 61.8571H78.8393V68.7143H71.9821V61.8571ZM71.9821 68.7143H78.8393V75.5714H71.9821V68.7143ZM71.9821 75.5714H78.8393V82.4286H71.9821V75.5714Z"/></svg>